<?xml version="1.0" encoding="UTF-8" standalone="no"?>
<!-- Created with Inkscape (http://www.inkscape.org/) -->

<svg
   xmlns:dc="http://purl.org/dc/elements/1.1/"
   xmlns:cc="http://creativecommons.org/ns#"
   xmlns:rdf="http://www.w3.org/1999/02/22-rdf-syntax-ns#"
   xmlns:svg="http://www.w3.org/2000/svg"
   xmlns="http://www.w3.org/2000/svg"
   xmlns:xlink="http://www.w3.org/1999/xlink"
   xmlns:sodipodi="http://sodipodi.sourceforge.net/DTD/sodipodi-0.dtd"
   xmlns:inkscape="http://www.inkscape.org/namespaces/inkscape"
   width="100%"
   height="100%"
   viewBox="0 0 800 800"
   id="svg2"
   sodipodi:version="0.32"
   inkscape:version="0.92.4 (5da689c313, 2019-01-14)"
   version="1.0"
   sodipodi:docname="YA_SVG_JS_C.svg"
   inkscape:output_extension="org.inkscape.output.svg.inkscape"
   style="overflow:visible">
  <script
     xlink:href="math.min.js"
     id="library"
     type="text/javascript" />
  <script
     xlink:href="options_continuous.js"
     id="options"
     type="text/javascript" />
  <script
     xlink:href="engine_script.js"
     id="engine"
     type="text/javascript" />
  <defs
     id="gradients">
    <linearGradient
       id="linearGradient3211">
      <stop
         style="stop-color:#000000;stop-opacity:0;"
         offset="0"
         id="stop3213" />
      <stop
         id="stop3219"
         offset="0.88378376"
         style="stop-color:#000000;stop-opacity:0;" />
      <stop
         style="stop-color:#000000;stop-opacity:0.11764706;"
         offset="1"
         id="stop3215" />
    </linearGradient>
    <linearGradient
       id="linearGradient3192">
      <stop
         style="stop-color:#000000;stop-opacity:0.23529412;"
         offset="0"
         id="stop3194" />
      <stop
         style="stop-color:#000000;stop-opacity:0;"
         offset="1"
         id="stop3196" />
    </linearGradient>
    <linearGradient
       inkscape:collect="always"
       id="linearGradient4354">
      <stop
         style="stop-color:#ffffff;stop-opacity:1;"
         offset="0"
         id="stop4356" />
      <stop
         style="stop-color:#ffffff;stop-opacity:0;"
         offset="1"
         id="stop4358" />
    </linearGradient>
    <linearGradient
       id="linearGradient4339">
      <stop
         style="stop-color:#ffffff;stop-opacity:1;"
         offset="0"
         id="stop4341" />
      <stop
         style="stop-color:#e6e6e6;stop-opacity:1;"
         offset="1"
         id="stop4343" />
    </linearGradient>
    <linearGradient
       id="linearGradient3805">
      <stop
         style="stop-color:#626262;stop-opacity:1;"
         offset="0"
         id="stop3807" />
      <stop
         style="stop-color:#ffffff;stop-opacity:1;"
         offset="1"
         id="stop3809" />
    </linearGradient>
    <linearGradient
       inkscape:collect="always"
       xlink:href="#linearGradient3805"
       id="linearGradient3223"
       gradientUnits="userSpaceOnUse"
       gradientTransform="matrix(2.6967256,0,0,2.6967256,1746.3385,190.33862)"
       spreadMethod="reflect"
       x1="-499.25412"
       y1="177.86642"
       x2="-499.25412"
       y2="77.74501" />
    <filter
       inkscape:collect="always"
       id="filter3214">
      <feGaussianBlur
         inkscape:collect="always"
         stdDeviation="8.1"
         id="feGaussianBlur3216" />
    </filter>
    <linearGradient
       inkscape:collect="always"
       xlink:href="#linearGradient4339"
       id="linearGradient3218"
       gradientUnits="userSpaceOnUse"
       x1="-300.36426"
       y1="-71.084129"
       x2="-630.49438"
       y2="259.04596"
       gradientTransform="matrix(1.5145544,0,0,1.5145544,1104.918,257.66078)" />
    <filter
       inkscape:collect="always"
       id="filter3259"
       x="-0.14772414"
       width="1.2954483"
       y="-0.020497609"
       height="1.0409952">
      <feGaussianBlur
         inkscape:collect="always"
         stdDeviation="1.785"
         id="feGaussianBlur3261" />
    </filter>
    <filter
       inkscape:collect="always"
       id="filter3295"
       x="-0.18806896"
       width="1.3761379"
       y="-0.019905111"
       height="1.0398102">
      <feGaussianBlur
         inkscape:collect="always"
         stdDeviation="2.2725"
         id="feGaussianBlur3297" />
    </filter>
    <filter
       inkscape:collect="always"
       id="filter3319"
       x="-0.13500001"
       width="1.27"
       y="-0.020769231"
       height="1.0415385">
      <feGaussianBlur
         inkscape:collect="always"
         stdDeviation="2.1375"
         id="feGaussianBlur3321" />
    </filter>
    <radialGradient
       inkscape:collect="always"
       xlink:href="#linearGradient3211"
       id="radialGradient3225"
       gradientUnits="userSpaceOnUse"
       cx="887.8208"
       cy="174.78618"
       fx="887.8208"
       fy="174.78618"
       r="66.239342"
       gradientTransform="matrix(3.7741922,0,0,3.7741922,-3050.8063,-359.67664)" />
    <linearGradient
       inkscape:collect="always"
       xlink:href="#linearGradient3192"
       id="linearGradient3240"
       x1="1477.6586"
       y1="-435.15393"
       x2="1830.9415"
       y2="-81.870964"
       gradientUnits="userSpaceOnUse"
       gradientTransform="translate(-1254.4062,658.40625)" />
    <filter
       inkscape:collect="always"
       id="filter3242">
      <feGaussianBlur
         inkscape:collect="always"
         stdDeviation="2.5"
         id="feGaussianBlur3244" />
    </filter>
    <linearGradient
       inkscape:collect="always"
       xlink:href="#linearGradient4354"
       id="linearGradient3247"
       gradientUnits="userSpaceOnUse"
       gradientTransform="matrix(1.0327829,0,0,1.0327829,-251.37616,-70.447075)"
       x1="533.87421"
       y1="116.62379"
       x2="533.87421"
       y2="358.63873" />
  </defs>
  <sodipodi:namedview
     id="guides"
     pagecolor="#ffffff"
     bordercolor="#666666"
     borderopacity="1.0"
     inkscape:pageopacity="0.0"
     inkscape:pageshadow="2"
     inkscape:zoom="0.5"
     inkscape:cx="1588.1973"
     inkscape:cy="436.81192"
     inkscape:document-units="px"
     inkscape:current-layer="clock"
     showgrid="false"
     borderlayer="true"
     inkscape:showpageshadow="false"
     inkscape:snap-guide="true"
     inkscape:snap-bbox="true"
     inkscape:object-paths="true"
     inkscape:object-nodes="true"
     inkscape:bbox-paths="true"
     inkscape:bbox-nodes="true"
     inkscape:snap-intersection-line-segments="true"
     inkscape:snap-center="true"
     inkscape:window-width="1792"
     inkscape:window-height="1051"
     inkscape:window-x="119"
     inkscape:window-y="-9"
     showguides="true"
     inkscape:guide-bbox="true"
     objecttolerance="4"
     gridtolerance="4"
     guidetolerance="4"
     inkscape:window-maximized="1"
     inkscape:snap-bbox-edge-midpoints="true"
     inkscape:snap-bbox-midpoints="true"
     inkscape:snap-intersection-paths="true"
     inkscape:snap-smooth-nodes="true"
     inkscape:snap-midpoints="true"
     inkscape:snap-object-midpoints="true"
     inkscape:snap-page="true"
     inkscape:snap-nodes="true"
     inkscape:snap-others="true"
     inkscape:snap-global="false" />
  <metadata
     id="mymetadata">
    <rdf:RDF>
      <cc:Work
         rdf:about="">
        <dc:format>image/svg+xml</dc:format>
        <dc:type
           rdf:resource="http://purl.org/dc/dcmitype/StillImage" />
        <dc:title>Yet Another SVG+Javascript Clock</dc:title>
        <dc:description>This interactive document is a SVG live clock inspired (though different) by the Swiss Railway (SBB CFF FFS) iconic station clock by Hans Hilfiker. See &lt;https://www.sbb.ch/&gt;.

The document also features vectorized portions of the free and open source font 'Fira Sans' (light weight used). See &lt;https://bboxtype.com/typefaces/FiraSans/&gt;.

The hand colors are chosen according the the RGB canonical color scheme. It is a mnemonic: Red for seconds, Green for minutes and Blue for hours.

V1.1 (06.10.2017): Design Update (the initial version was identical to the SBB CFF FFS clock, leading to potential copyright issues)
V1.2 (02.10.2019): Small Design Tweak (centering of the 'SWISS MADE' seal). Typos corrected in the engine script and adaptation to the latest math.js version

Created By Fabien Fellay, 2017-2019</dc:description>
        <dc:date>02.10.2019</dc:date>
        <dc:creator>
          <cc:Agent>
            <dc:title>Fabien Fellay</dc:title>
          </cc:Agent>
        </dc:creator>
        <dc:language>English</dc:language>
        <cc:license
           rdf:resource="http://creativecommons.org/licenses/by-sa/4.0/" />
      </cc:Work>
      <cc:License
         rdf:about="http://creativecommons.org/licenses/by-sa/4.0/">
        <cc:permits
           rdf:resource="http://creativecommons.org/ns#Reproduction" />
        <cc:permits
           rdf:resource="http://creativecommons.org/ns#Distribution" />
        <cc:requires
           rdf:resource="http://creativecommons.org/ns#Notice" />
        <cc:requires
           rdf:resource="http://creativecommons.org/ns#Attribution" />
        <cc:permits
           rdf:resource="http://creativecommons.org/ns#DerivativeWorks" />
        <cc:requires
           rdf:resource="http://creativecommons.org/ns#ShareAlike" />
      </cc:License>
    </rdf:RDF>
  </metadata>
  <title
     id="TheTitle">Yet Another SVG+Javascript Clock</title>
  <g
     inkscape:groupmode="layer"
     id="clock"
     inkscape:label="clock">
    <path
       inkscape:connector-curvature="0"
       style="fill:#000000;fill-opacity:0.23529412;filter:url(#filter3214)"
       id="clock_shade"
       d="m 690,420 c 0,149.04002 -120.96001,270 -270,270 -149.03999,0 -270,-120.95998 -270,-270 0,-149.03999 120.96001,-270 270,-270 149.03999,0 270,120.96001 270,270 z" />
    <path
       inkscape:connector-curvature="0"
       id="base"
       d="m 650,400 c 0,138 -112,250 -250,250 -138,0 -250,-112 -250,-250 0,-138 112,-250 250,-250 138,0 250,112 250,250 z"
       style="fill:url(#linearGradient3218);fill-opacity:1;fill-rule:nonzero;stroke:none;stroke-width:1.36417389;stroke-linecap:butt;stroke-linejoin:miter;stroke-miterlimit:4;stroke-dashoffset:0;stroke-opacity:1" />
    <path
       inkscape:connector-curvature="0"
       id="border_shade"
       d="m 400,150 c -137.9999,0 -250,112 -250,250 0,138 112,250 250,250 138,0 250,-112 250,-250 0,-138 -112,-250 -250,-250 z m 0,13 c 130.824,-1e-5 237,106.176 237,237 0,130.824 -106.1759,237 -237,237 -130.824,0 -237,-106.176 -237,-237 0,-130.82401 106.176,-237 237,-237 z"
       style="opacity:1;fill:url(#linearGradient3240);fill-opacity:1;fill-rule:nonzero;stroke:none;stroke-width:2;stroke-linecap:butt;stroke-linejoin:miter;stroke-miterlimit:4;stroke-dasharray:none;stroke-dashoffset:0;stroke-opacity:1;filter:url(#filter3242)" />
    <g
       id="swiss_made">
      <path
         sodipodi:nodetypes="sssss"
         inkscape:connector-curvature="0"
         id="reference_circle"
         d="m 400.00001,161.89706 c -131.4329,0 -238.103,106.67014 -238.103,238.10298 0,131.43283 106.67011,238.103 238.10301,238.1029 131.4328,0 238.10296,-106.66997 238.10296,-238.1029 0,-131.43284 -106.67017,-238.10297 -238.10297,-238.10298 z"
         style="overflow:visible;opacity:1;fill:none;fill-opacity:1;fill-rule:nonzero;stroke:none;stroke-width:0.49999997;stroke-linecap:butt;stroke-linejoin:miter;stroke-miterlimit:4;stroke-dasharray:none;stroke-dashoffset:0;stroke-opacity:1" />
      <path
         d="m 430.91517,628.43734 -3.34645,0.41434 0.37601,3.03681 2.8939,-0.35831 0.0737,0.59545 -2.89391,0.35831 0.41287,3.33454 3.51317,-0.43498 0.0737,0.59545 -4.22772,0.52345 -1.01005,-8.1577 4.14436,-0.51314 z m -9.82997,0.49209 q 1.69642,-0.16061 2.82915,0.60001 1.14469,0.75949 1.36298,3.06518 0.2183,2.30569 -0.76867,3.33932 -0.97616,1.02055 -2.51726,1.16646 l -1.75615,0.16626 -0.77478,-8.1834 z m -0.85138,0.68329 0.66167,6.98875 1.08714,-0.10293 q 2.87912,-0.27258 2.54207,-3.83266 -0.13347,-1.4097 -0.62286,-2.12275 -0.48938,-0.71304 -1.15825,-0.90284 -0.65805,-0.20288 -1.50626,-0.12258 z m -3.14001,5.64161 -3.44884,0.22237 -0.57411,2.28568 -0.73048,0.0471 2.21338,-8.37978 0.89813,-0.0579 3.25926,8.02691 -0.75444,0.0487 z m -0.23098,-0.59838 -1.82816,-4.66804 -1.2255,4.86494 z m -5.53584,3.21177 -0.69566,0.0217 -0.49435,-3.92252 q -0.29923,-2.28379 -0.42316,-3.56455 l -1.85942,6.60108 -0.68367,0.0213 -2.33855,-6.47034 q -0.0237,1.16531 -0.14388,3.08998 l -0.0214,0.46889 -0.23656,3.96929 -0.68366,0.0213 0.52374,-8.24029 0.99551,-0.031 2.23812,6.3294 1.76794,-6.45416 1.00751,-0.0314 z m -14.89911,-8.14398 q 0.75591,0.0114 1.2924,0.24758 0.54867,0.22433 1.05753,0.70009 l -0.42686,0.44959 q -0.46195,-0.40304 -0.90318,-0.58973 -0.44122,-0.1867 -1.00516,-0.19524 -0.76791,-0.0116 -1.24167,0.36526 -0.47357,0.36487 -0.48319,1.0008 -0.007,0.43195 0.15708,0.72246 0.17581,0.27869 0.58031,0.51284 0.40468,0.22215 1.15715,0.46156 0.81209,0.26432 1.31168,0.55991 0.49958,0.2956 0.76865,0.75572 0.26907,0.46012 0.25854,1.15604 -0.0105,0.69592 -0.35467,1.23078 -0.34413,0.53485 -0.9726,0.82538 -0.61647,0.2907 -1.43237,0.27836 -1.53583,-0.0232 -2.61209,-1.07165 l 0.41486,-0.44977 q 0.4974,0.43957 1.00989,0.67535 0.51268,0.22379 1.1846,0.23395 0.8879,0.0134 1.44692,-0.44615 0.57101,-0.45942 0.58318,-1.26332 0.008,-0.50395 -0.17945,-0.83081 -0.17508,-0.32669 -0.59158,-0.56102 -0.40432,-0.24615 -1.15661,-0.49756 -1.25404,-0.40302 -1.78635,-0.91513 -0.53232,-0.51211 -0.51924,-1.37601 0.009,-0.57594 0.31558,-1.02735 0.31904,-0.46322 0.86279,-0.70702 0.55594,-0.25562 1.26386,-0.24491 z m -6.08122,-0.1721 q 0.75535,0.0314 1.28541,0.28167 0.54254,0.23876 1.03864,0.7278 l -0.43859,0.43815 q -0.45113,-0.41511 -0.88727,-0.61341 -0.43613,-0.1983 -0.99964,-0.22174 -0.76734,-0.0319 -1.2509,0.33229 -0.48306,0.35223 -0.50949,0.98768 -0.018,0.43162 0.13793,0.72636 0.16837,0.28324 0.56654,0.528 0.39867,0.23277 1.14454,0.492 0.80482,0.2857 1.29641,0.5944 0.4916,0.3087 0.7484,0.77578 0.25681,0.46708 0.22788,1.16247 -0.0289,0.6954 -0.38708,1.22097 -0.35816,0.52557 -0.99409,0.79937 -0.62394,0.2743 -1.43923,0.24039 -1.53468,-0.0639 -2.58284,-1.14034 l 0.4266,-0.43865 q 0.48561,0.45257 0.99169,0.70182 0.50658,0.23727 1.17799,0.2652 0.88724,0.0369 1.45821,-0.40774 0.58297,-0.44416 0.61639,-1.24746 0.021,-0.50357 -0.15742,-0.83527 -0.16638,-0.3312 -0.57654,-0.57646 -0.39767,-0.25675 -1.14304,-0.52797 -1.24295,-0.43604 -1.76154,-0.96205 -0.51858,-0.52601 -0.48267,-1.38926 0.0239,-0.5755 0.34264,-1.01864 0.33118,-0.45463 0.88119,-0.68396 0.5625,-0.24083 1.26988,-0.2114 z m -4.86821,8.11536 -0.71863,-0.0444 0.50686,-8.20436 0.71863,0.0444 z m -4.22159,-0.2769 -0.89643,-0.08 -1.13332,-7.5467 -2.45242,7.22653 -0.87253,-0.0779 -1.07376,-8.34858 0.7291,0.0651 0.88253,7.65683 2.46416,-7.358 0.80081,0.0715 1.15743,7.68137 2.23707,-7.37828 0.68129,0.0608 z m -9.6173,-9.37407 q 0.75032,0.0926 1.25834,0.38496 0.5214,0.28196 0.97621,0.80962 l -0.47267,0.40115 q -0.41599,-0.45033 -0.83461,-0.68333 -0.41862,-0.23301 -0.97838,-0.30207 -0.76222,-0.094 -1.27372,0.22978 -0.51002,0.3119 -0.58789,0.94312 -0.0529,0.42875 0.0786,0.73515 0.14485,0.29596 0.52187,0.5722 0.37848,0.26433 1.10088,0.58318 0.779,0.35001 1.24395,0.69755 0.46495,0.34754 0.68304,0.83391 0.21809,0.48636 0.13287,1.17712 -0.0852,0.69076 -0.4848,1.18556 -0.39959,0.4948 -1.05563,0.71614 -0.64412,0.22281 -1.45398,0.12291 -1.52445,-0.18807 -2.48187,-1.34601 l 0.46076,-0.40261 q 0.44731,0.49046 0.93151,0.77992 0.48568,0.27755 1.15262,0.35983 0.88132,0.10873 1.48647,-0.28817 0.61705,-0.39542 0.71549,-1.19337 0.0617,-0.50021 -0.0892,-0.84528 -0.13898,-0.3436 -0.5279,-0.62131 -0.37555,-0.28815 -1.09648,-0.61891 -1.2035,-0.53538 -1.67773,-1.1017 -0.47423,-0.56633 -0.36844,-1.42383 0.0705,-0.57166 0.4241,-0.9875 0.36695,-0.42628 0.93374,-0.61027 0.58017,-0.19443 1.28284,-0.10774 z"
         style="font-style:normal;font-variant:normal;font-weight:300;font-stretch:normal;font-size:12px;line-height:1.25;font-family:'Fira Sans';-inkscape-font-specification:'Fira Sans Light';text-align:center;letter-spacing:0px;word-spacing:0px;text-anchor:middle;fill:#000000;fill-opacity:1;stroke:none"
         id="seal_text"
         inkscape:connector-curvature="0" />
    </g>
    <path
       inkscape:connector-curvature="0"
       d="m 381.8972,184.7129 a 4.5,4.5 0 0 1 -4.00498,4.94572 4.5,4.5 0 0 1 -4.94572,-4.00497 4.5,4.5 0 0 1 4.00497,-4.94572 4.5,4.5 0 0 1 4.94573,4.00497 z m -22.40447,3.07162 a 4.5,4.5 0 0 1 -3.46606,5.33727 4.5,4.5 0 0 1 -5.33726,-3.46606 4.5,4.5 0 0 1 3.46606,-5.33728 4.5,4.5 0 0 1 5.33726,3.46607 z m -21.96065,5.3967 a 4.5,4.5 0 0 1 -2.88918,5.67033 4.5,4.5 0 0 1 -5.67033,-2.88918 4.5,4.5 0 0 1 2.88918,-5.67033 4.5,4.5 0 0 1 5.67033,2.88918 z m -21.27624,7.66265 a 4.5,4.5 0 0 1 -2.28064,5.94127 4.5,4.5 0 0 1 -5.94127,-2.28064 4.5,4.5 0 0 1 2.28064,-5.94127 4.5,4.5 0 0 1 5.94127,2.28064 z m -39.57689,21.76343 a 4.5,4.5 0 0 1 -0.99554,6.28561 4.5,4.5 0 0 1 -6.2856,-0.99555 4.5,4.5 0 0 1 0.99554,-6.2856 4.5,4.5 0 0 1 6.2856,0.99554 z m -17.86702,13.86234 a 4.5,4.5 0 0 1 -0.33306,6.35524 4.5,4.5 0 0 1 -6.35524,-0.33307 4.5,4.5 0 0 1 0.33306,-6.35524 4.5,4.5 0 0 1 6.35524,0.33307 z m -16.32013,15.654 a 4.5,4.5 0 0 1 0.33307,6.35524 4.5,4.5 0 0 1 -6.35524,0.33307 4.5,4.5 0 0 1 -0.33307,-6.35524 4.5,4.5 0 0 1 6.35524,-0.33307 z m -14.59444,17.27417 a 4.5,4.5 0 0 1 0.99554,6.28562 4.5,4.5 0 0 1 -6.28561,0.99553 4.5,4.5 0 0 1 -0.99554,-6.28561 4.5,4.5 0 0 1 6.28561,-0.99554 z m -23.39287,38.63613 a 4.5,4.5 0 0 1 2.28064,5.94126 4.5,4.5 0 0 1 -5.94127,2.28064 4.5,4.5 0 0 1 -2.28064,-5.94127 4.5,4.5 0 0 1 5.94127,-2.28063 z m -8.54212,20.93864 a 4.5,4.5 0 0 1 2.88918,5.67033 4.5,4.5 0 0 1 -5.67034,2.88918 4.5,4.5 0 0 1 -2.88917,-5.67033 4.5,4.5 0 0 1 5.67033,-2.88918 z m -6.30665,21.71683 a 4.5,4.5 0 0 1 3.46606,5.33727 4.5,4.5 0 0 1 -5.33727,3.46606 4.5,4.5 0 0 1 -3.46606,-5.33726 4.5,4.5 0 0 1 5.33727,-3.46607 z m -4.00208,22.2571 a 4.5,4.5 0 0 1 4.00497,4.94572 4.5,4.5 0 0 1 -4.94572,4.00497 4.5,4.5 0 0 1 -4.00498,-4.94572 4.5,4.5 0 0 1 4.94573,-4.00497 z m -0.94075,45.15629 a 4.5,4.5 0 0 1 4.94573,4.00497 4.5,4.5 0 0 1 -4.00497,4.94573 4.5,4.5 0 0 1 -4.94572,-4.00497 4.5,4.5 0 0 1 4.00496,-4.94573 z m 3.07163,22.40446 a 4.5,4.5 0 0 1 5.33727,3.46607 4.5,4.5 0 0 1 -3.46606,5.33726 4.5,4.5 0 0 1 -5.33727,-3.46606 4.5,4.5 0 0 1 3.46606,-5.33727 z m 5.39671,21.96066 a 4.5,4.5 0 0 1 5.67031,2.88917 4.5,4.5 0 0 1 -2.88918,5.67033 4.5,4.5 0 0 1 -5.67033,-2.88917 4.5,4.5 0 0 1 2.8892,-5.67033 z m 7.66264,21.27624 a 4.5,4.5 0 0 1 5.94127,2.28064 4.5,4.5 0 0 1 -2.28064,5.94127 4.5,4.5 0 0 1 -5.94127,-2.28064 4.5,4.5 0 0 1 2.28064,-5.94127 z m 21.76343,39.57688 a 4.5,4.5 0 0 1 6.28561,0.99554 4.5,4.5 0 0 1 -0.99555,6.28561 4.5,4.5 0 0 1 -6.2856,-0.99554 4.5,4.5 0 0 1 0.99554,-6.28561 z m 13.86234,17.86702 a 4.5,4.5 0 0 1 6.35524,0.33306 4.5,4.5 0 0 1 -0.33308,6.35524 4.5,4.5 0 0 1 -6.35523,-0.33306 4.5,4.5 0 0 1 0.33307,-6.35524 z m 15.654,16.32013 a 4.5,4.5 0 0 1 6.35524,-0.33306 4.5,4.5 0 0 1 0.33307,6.35524 4.5,4.5 0 0 1 -6.35524,0.33306 4.5,4.5 0 0 1 -0.33307,-6.35524 z m 17.27418,14.59444 a 4.5,4.5 0 0 1 6.28561,-0.99554 4.5,4.5 0 0 1 0.99554,6.28561 4.5,4.5 0 0 1 -6.28562,0.99554 4.5,4.5 0 0 1 -0.99553,-6.28561 z m 38.63612,23.39288 a 4.5,4.5 0 0 1 5.94126,-2.28065 4.5,4.5 0 0 1 2.28064,5.94128 4.5,4.5 0 0 1 -5.94127,2.28063 4.5,4.5 0 0 1 -2.28063,-5.94126 z m 20.93864,8.54212 a 4.5,4.5 0 0 1 5.67033,-2.88918 4.5,4.5 0 0 1 2.88918,5.67033 4.5,4.5 0 0 1 -5.67033,2.88918 4.5,4.5 0 0 1 -2.88918,-5.67033 z m 21.71684,6.30665 a 4.5,4.5 0 0 1 5.33726,-3.46607 4.5,4.5 0 0 1 3.46606,5.33727 4.5,4.5 0 0 1 -5.33726,3.46606 4.5,4.5 0 0 1 -3.46606,-5.33726 z m 22.25709,4.00207 a 4.5,4.5 0 0 1 4.94572,-4.00497 4.5,4.5 0 0 1 4.00497,4.94572 4.5,4.5 0 0 1 -4.94572,4.00498 4.5,4.5 0 0 1 -4.00497,-4.94573 z m 45.15629,0.94076 a 4.5,4.5 0 0 1 4.00497,-4.94573 4.5,4.5 0 0 1 4.94573,4.00497 4.5,4.5 0 0 1 -4.00497,4.94573 4.5,4.5 0 0 1 -4.94573,-4.00497 z m 22.40447,-3.07162 a 4.5,4.5 0 0 1 3.46606,-5.33727 4.5,4.5 0 0 1 5.33726,3.46606 4.5,4.5 0 0 1 -3.46606,5.33727 4.5,4.5 0 0 1 -5.33726,-3.46606 z m 21.96065,-5.39671 a 4.5,4.5 0 0 1 2.88918,-5.67032 4.5,4.5 0 0 1 5.67033,2.88917 4.5,4.5 0 0 1 -2.88918,5.67034 4.5,4.5 0 0 1 -5.67033,-2.88919 z m 21.27624,-7.66265 a 4.5,4.5 0 0 1 2.28064,-5.94127 4.5,4.5 0 0 1 5.94127,2.28064 4.5,4.5 0 0 1 -2.28064,5.94127 4.5,4.5 0 0 1 -5.94127,-2.28064 z m 39.57689,-21.76342 a 4.5,4.5 0 0 1 0.99554,-6.28562 4.5,4.5 0 0 1 6.2856,0.99555 4.5,4.5 0 0 1 -0.99554,6.28561 4.5,4.5 0 0 1 -6.2856,-0.99554 z m 17.86702,-13.86235 a 4.5,4.5 0 0 1 0.33306,-6.35523 4.5,4.5 0 0 1 6.35524,0.33307 4.5,4.5 0 0 1 -0.33306,6.35524 4.5,4.5 0 0 1 -6.35524,-0.33308 z m 16.32013,-15.654 a 4.5,4.5 0 0 1 -0.33307,-6.35524 4.5,4.5 0 0 1 6.35524,-0.33307 4.5,4.5 0 0 1 0.33307,6.35524 4.5,4.5 0 0 1 -6.35524,0.33307 z m 14.59444,-17.27417 a 4.5,4.5 0 0 1 -0.99554,-6.28561 4.5,4.5 0 0 1 6.28561,-0.99554 4.5,4.5 0 0 1 0.99554,6.28561 4.5,4.5 0 0 1 -6.28561,0.99554 z m 23.39287,-38.63613 a 4.5,4.5 0 0 1 -2.28064,-5.94126 4.5,4.5 0 0 1 5.94127,-2.28064 4.5,4.5 0 0 1 2.28064,5.94127 4.5,4.5 0 0 1 -5.94127,2.28063 z m 8.54212,-20.93864 a 4.5,4.5 0 0 1 -2.88918,-5.67033 4.5,4.5 0 0 1 5.67033,-2.88917 4.5,4.5 0 0 1 2.88918,5.67033 4.5,4.5 0 0 1 -5.67033,2.88917 z m 6.30665,-21.71683 a 4.5,4.5 0 0 1 -3.46606,-5.33726 4.5,4.5 0 0 1 5.33727,-3.46607 4.5,4.5 0 0 1 3.46606,5.33727 4.5,4.5 0 0 1 -5.33727,3.46606 z m 4.00208,-22.25709 a 4.5,4.5 0 0 1 -4.00497,-4.94573 4.5,4.5 0 0 1 4.94572,-4.00497 4.5,4.5 0 0 1 4.00498,4.94573 4.5,4.5 0 0 1 -4.94573,4.00497 z m 0.94075,-45.1563 a 4.5,4.5 0 0 1 -4.94572,-4.00497 4.5,4.5 0 0 1 4.00497,-4.94572 4.5,4.5 0 0 1 4.94572,4.00497 4.5,4.5 0 0 1 -4.00497,4.94572 z m -3.07162,-22.40446 a 4.5,4.5 0 0 1 -5.33727,-3.46606 4.5,4.5 0 0 1 3.46606,-5.33727 4.5,4.5 0 0 1 5.33727,3.46607 4.5,4.5 0 0 1 -3.46606,5.33726 z m -5.39671,-21.96065 a 4.5,4.5 0 0 1 -5.67032,-2.88918 4.5,4.5 0 0 1 2.88918,-5.67033 4.5,4.5 0 0 1 5.67033,2.88918 4.5,4.5 0 0 1 -2.88919,5.67033 z m -7.66265,-21.27625 a 4.5,4.5 0 0 1 -5.94126,-2.28064 4.5,4.5 0 0 1 2.28064,-5.94127 4.5,4.5 0 0 1 5.94127,2.28064 4.5,4.5 0 0 1 -2.28065,5.94127 z m -21.76342,-39.57688 a 4.5,4.5 0 0 1 -6.28561,-0.99554 4.5,4.5 0 0 1 0.99555,-6.2856 4.5,4.5 0 0 1 6.2856,0.99554 4.5,4.5 0 0 1 -0.99554,6.2856 z m -13.86234,-17.86702 a 4.5,4.5 0 0 1 -6.35524,-0.33306 4.5,4.5 0 0 1 0.33307,-6.35524 4.5,4.5 0 0 1 6.35524,0.33306 4.5,4.5 0 0 1 -0.33307,6.35524 z m -15.654,-16.32013 a 4.5,4.5 0 0 1 -6.35524,0.33307 4.5,4.5 0 0 1 -0.33307,-6.35524 4.5,4.5 0 0 1 6.35524,-0.33307 4.5,4.5 0 0 1 0.33307,6.35524 z m -17.27418,-14.59444 a 4.5,4.5 0 0 1 -6.28561,0.99554 4.5,4.5 0 0 1 -0.99554,-6.28561 4.5,4.5 0 0 1 6.28561,-0.99554 4.5,4.5 0 0 1 0.99554,6.28561 z m -38.63612,-23.39287 a 4.5,4.5 0 0 1 -5.94126,2.28064 4.5,4.5 0 0 1 -2.28064,-5.94127 4.5,4.5 0 0 1 5.94126,-2.28064 4.5,4.5 0 0 1 2.28064,5.94127 z m -20.93864,-8.54212 a 4.5,4.5 0 0 1 -5.67033,2.88917 4.5,4.5 0 0 1 -2.88918,-5.67033 4.5,4.5 0 0 1 5.67033,-2.88918 4.5,4.5 0 0 1 2.88918,5.67034 z m -21.71684,-6.30666 a 4.5,4.5 0 0 1 -5.33726,3.46607 4.5,4.5 0 0 1 -3.46606,-5.33727 4.5,4.5 0 0 1 5.33726,-3.46606 4.5,4.5 0 0 1 3.46606,5.33726 z m -22.25709,-4.00207 a 4.5,4.5 0 0 1 -4.94573,4.00497 4.5,4.5 0 0 1 -4.00497,-4.94572 4.5,4.5 0 0 1 4.94573,-4.00498 4.5,4.5 0 0 1 4.00497,4.94573 z m -35.55349,372.34635 -10e-6,66 h 17 v -66 z m 99.99999,-14.53125 -13,7.5 27,46.78125 13,-7.5 z m -183,0 -27,46.78125 13,7.5 27,-46.78125 z m 242.46875,-64.96875 -7.5,13 46.78125,26.99999 7.5,-12.99999 z m -301.9375,0 -46.78125,27 7.5,13 46.78125,-27 z m 308.96875,-87 v 17 h 66 v -17 z m -382,0 v 17 h 66 v -17 z m 414.25,-110 -46.78125,27 7.5,13 46.78125,-27 z m -380.5,10e-6 -7.5,13 46.78125,26.99999 7.5,-13 z m 295.75,-79.25 -27,46.78125 13,7.49999 27,-46.78125 z m -211,-1e-5 -13,7.50001 27,46.78124 13,-7.5 z m 97,-26.25 v 66 h 17 v -65.99999 z"
       style="fill:#000000;fill-opacity:1;stroke-width:0.84852815"
       id="marks" />
    <path
       inkscape:connector-curvature="0"
       d="m 467.19075,301.21843 -0.928,0.112 v 11.776 h 0.928 z m 4.688,3.52 h -1.072 l -3.52,3.792 3.84,4.576 h 1.12 l -3.888,-4.624 z m -10.252,-0.176 c -2.144,0 -3.536,1.728 -3.536,4.416 0,2.72 1.408,4.304 3.552,4.304 0.944,0 1.744,-0.336 2.4,-0.896 l -0.448,-0.624 c -0.592,0.448 -1.152,0.704 -1.936,0.704 -1.52,0 -2.576,-1.104 -2.576,-3.504 0,-2.416 1.072,-3.6 2.592,-3.6 0.768,0 1.312,0.224 1.856,0.656 l 0.464,-0.608 c -0.704,-0.608 -1.424,-0.848 -2.368,-0.848 z m -9.109,0 c -2.192,0 -3.552,1.68 -3.552,4.368 0,2.688 1.312,4.352 3.536,4.352 2.208,0 3.552,-1.68 3.552,-4.384 0,-2.736 -1.312,-4.336 -3.536,-4.336 z m 0,0.784 c 1.616,0 2.56,1.2 2.56,3.552 0,2.4 -0.976,3.6 -2.576,3.6 -1.6,0 -2.544,-1.216 -2.544,-3.568 0,-2.4 0.976,-3.584 2.56,-3.584 z m -5.9255,7.936 c 0.352,0 0.704,-0.096 0.96,-0.224 l -0.256,-0.688 c -0.176,0.08 -0.368,0.112 -0.576,0.112 -0.464,0 -0.672,-0.272 -0.672,-0.816 v -10.448 l -0.928,0.112 v 10.368 c 0,1.072 0.592,1.584 1.472,1.584 z m -6.25625,-11.312 c -2.432,0 -4.432,1.904 -4.432,5.648 0,3.696 1.888,5.664 4.416,5.664 1.36,0 2.304,-0.512 2.96,-1.136 l -0.496,-0.624 c -0.64,0.512 -1.296,0.912 -2.432,0.912 -1.92,0 -3.44,-1.488 -3.44,-4.816 0,-3.488 1.584,-4.832 3.488,-4.832 0.896,0 1.504,0.256 2.24,0.832 l 0.512,-0.64 c -0.784,-0.64 -1.52,-1.008 -2.816,-1.008 z m -10.2895,10.144 c -0.416,0.24 -0.816,0.368 -1.28,0.368 -0.848,0 -1.232,-0.48 -1.232,-1.456 v -5.536 h 2.048 l 0.112,-0.752 h -2.16 v -2.112 l -0.928,0.112 v 2 h -1.408 v 0.752 h 1.408 v 5.584 c 0,1.456 0.784,2.208 2.048,2.208 0.672,0 1.248,-0.192 1.76,-0.528 z m -9.26525,-7.552 c -1.072,0 -1.968,0.544 -2.576,1.392 l -0.08,-1.216 h -0.8 v 11.648 l 0.928,-0.128 v -4.128 c 0.528,0.672 1.328,1.152 2.384,1.152 2.08,0 3.184,-1.76 3.184,-4.4 0,-2.704 -0.976,-4.32 -3.04,-4.32 z m -0.32,7.936 c -0.96,0 -1.696,-0.496 -2.208,-1.28 v -4.448 c 0.576,-0.8 1.28,-1.44 2.352,-1.44 1.456,0 2.224,1.168 2.224,3.552 0,2.4 -0.832,3.616 -2.368,3.616 z m -7.0005,-11.44 c -0.416,0 -0.688,0.304 -0.688,0.672 0,0.368 0.272,0.672 0.688,0.672 0.432,0 0.704,-0.304 0.704,-0.672 0,-0.368 -0.272,-0.672 -0.704,-0.672 z m 0.48,3.68 h -0.928 v 8.368 h 0.928 z m -3.64875,-0.176 c -1.168,0 -1.92,0.672 -2.368,2.048 l -0.08,-1.872 h -0.8 v 8.368 h 0.928 v -5.12 c 0.448,-1.712 1.072,-2.544 2.24,-2.544 0.288,0 0.496,0.032 0.736,0.096 l 0.176,-0.88 c -0.224,-0.064 -0.512,-0.096 -0.832,-0.096 z m -7.884,0 c -2.144,0 -3.536,1.728 -3.536,4.416 0,2.72 1.408,4.304 3.552,4.304 0.944,0 1.744,-0.336 2.4,-0.896 l -0.448,-0.624 c -0.592,0.448 -1.152,0.704 -1.936,0.704 -1.52,0 -2.576,-1.104 -2.576,-3.504 0,-2.416 1.072,-3.6 2.592,-3.6 0.768,0 1.312,0.224 1.856,0.656 l 0.464,-0.608 c -0.704,-0.608 -1.424,-0.848 -2.368,-0.848 z m -8.2535,0 c -1.584,0 -2.784,0.912 -2.784,2.192 0,1.168 0.72,1.824 2.496,2.288 1.744,0.48 2.208,0.848 2.208,1.856 0,1.024 -0.848,1.6 -2.064,1.6 -1.024,0 -1.76,-0.32 -2.464,-0.88 l -0.512,0.592 c 0.72,0.608 1.632,1.072 2.992,1.072 1.664,0 3.024,-0.88 3.024,-2.432 0,-1.424 -0.864,-2.048 -2.688,-2.528 -1.504,-0.4 -2.032,-0.752 -2.032,-1.584 0,-0.864 0.752,-1.408 1.856,-1.408 0.848,0 1.472,0.256 2.208,0.768 l 0.432,-0.608 c -0.784,-0.608 -1.6,-0.928 -2.672,-0.928 z m -5.25425,6.688 v -4.032 c 0,-1.712 -0.832,-2.656 -2.736,-2.656 -0.88,0 -1.712,0.192 -2.64,0.56 l 0.24,0.704 c 0.832,-0.304 1.6,-0.48 2.272,-0.48 1.392,0 1.936,0.592 1.936,1.92 v 0.816 h -1.6 c -2.144,0 -3.472,0.944 -3.472,2.704 0,1.488 0.976,2.496 2.592,2.496 1.12,0 2.016,-0.448 2.608,-1.408 0.128,0.896 0.56,1.264 1.296,1.408 l 0.208,-0.656 c -0.448,-0.176 -0.704,-0.448 -0.704,-1.376 z m -3.248,1.28 c -1.104,0 -1.76,-0.64 -1.76,-1.792 0,-1.328 0.944,-1.984 2.624,-1.984 h 1.456 v 2.304 c -0.528,0.944 -1.264,1.472 -2.32,1.472 z m -3.6805,-7.792 h -0.992 l -2.48,7.552 -2.544,-7.552 h -1.024 l 2.992,8.368 h 1.152 z m -8.6965,6.512 v -4.032 c 0,-1.712 -0.832,-2.656 -2.736,-2.656 -0.88,0 -1.712,0.192 -2.64,0.56 l 0.24,0.704 c 0.832,-0.304 1.6,-0.48 2.272,-0.48 1.392,0 1.936,0.592 1.936,1.92 v 0.816 h -1.6 c -2.144,0 -3.472,0.944 -3.472,2.704 0,1.488 0.976,2.496 2.592,2.496 1.12,0 2.016,-0.448 2.608,-1.408 0.128,0.896 0.56,1.264 1.296,1.408 l 0.208,-0.656 c -0.448,-0.176 -0.704,-0.448 -0.704,-1.376 z m -3.248,1.28 c -1.104,0 -1.76,-0.64 -1.76,-1.792 0,-1.328 0.944,-1.984 2.624,-1.984 h 1.456 v 2.304 c -0.528,0.944 -1.264,1.472 -2.32,1.472 z m -5.34425,-10.384 h -0.96 v 9.44 c 0,1.488 -0.336,2.08 -1.792,2.72 l 0.256,0.704 c 1.792,-0.688 2.496,-1.424 2.496,-3.376 z m -6.326,2.832 h -0.88 v 2.432 h -2.4 v 0.8 h 2.4 v 2.432 h 0.88 v -2.432 h 2.4 v -0.8 h -2.4 z m -8.627,-3.008 c -2.352,0 -4.576,1.84 -4.576,5.616 0,3.792 1.808,5.696 4.528,5.696 1.184,0 2.272,-0.336 3.248,-0.896 v -5.184 h -3.2 l 0.112,0.8 h 2.144 v 3.888 c -0.688,0.384 -1.408,0.576 -2.304,0.576 -2.16,0 -3.52,-1.52 -3.52,-4.88 0,-3.488 1.808,-4.8 3.568,-4.8 0.976,0 1.664,0.272 2.432,0.88 l 0.576,-0.608 c -0.896,-0.72 -1.728,-1.088 -3.008,-1.088 z m -5.80825,0.176 h -0.992 l -3.104,9.968 -3.088,-9.968 h -1.04 l 3.584,10.96 h 1.072 z m -12.5205,-0.176 c -1.92,0 -3.216,1.136 -3.216,2.688 0,1.584 0.944,2.336 3.12,3.008 1.952,0.608 2.608,1.152 2.608,2.48 0,1.472 -1.136,2.32 -2.672,2.32 -1.28,0 -2.128,-0.464 -2.944,-1.168 l -0.544,0.608 c 0.896,0.848 2,1.376 3.504,1.376 2.208,0 3.632,-1.296 3.632,-3.168 0,-1.936 -1.2,-2.64 -3.168,-3.248 -1.968,-0.592 -2.56,-1.104 -2.56,-2.224 0,-1.152 0.928,-1.856 2.272,-1.856 1.008,0 1.744,0.304 2.56,1.008 l 0.56,-0.608 c -0.864,-0.768 -1.728,-1.216 -3.152,-1.216 z m 108.75013,-17.408 c -1.168,0 -1.92,0.672 -2.368,2.048 l -0.08,-1.872 h -0.8 v 8.368 h 0.928 v -5.12 c 0.448,-1.712 1.072,-2.544 2.24,-2.544 0.288,0 0.496,0.032 0.736,0.096 l 0.176,-0.88 c -0.224,-0.064 -0.512,-0.096 -0.832,-0.096 z m -5.8745,4.048 c 0,-2.464 -1.088,-4.048 -3.264,-4.048 -2.048,0 -3.344,1.76 -3.344,4.432 0,2.688 1.344,4.288 3.552,4.288 1.104,0 1.952,-0.384 2.736,-1.024 l -0.432,-0.592 c -0.736,0.544 -1.344,0.832 -2.256,0.832 -1.44,0 -2.496,-0.944 -2.608,-3.216 h 5.584 c 0.016,-0.16 0.032,-0.416 0.032,-0.672 z m -0.912,-0.048 h -4.704 c 0.096,-2.272 1.072,-3.232 2.384,-3.232 1.584,0 2.32,1.168 2.32,2.992 z m -10.67175,-4 c -1.2,0 -2.096,0.624 -2.768,1.568 v -4.912 l -0.928,0.112 v 11.776 h 0.928 v -6.064 c 0.688,-1.024 1.456,-1.728 2.592,-1.728 1.008,0 1.584,0.576 1.584,1.936 v 5.856 h 0.928 v -5.984 c 0,-1.584 -0.832,-2.56 -2.336,-2.56 z m -5.72475,7.552 c -0.416,0.24 -0.816,0.368 -1.28,0.368 -0.848,0 -1.232,-0.48 -1.232,-1.456 v -5.536 h 2.048 l 0.112,-0.752 h -2.16 v -2.112 l -0.928,0.112 v 2 h -1.408 v 0.752 h 1.408 v 5.584 c 0,1.456 0.784,2.208 2.048,2.208 0.672,0 1.248,-0.192 1.76,-0.528 z m -9.685,-7.552 c -2.192,0 -3.552,1.68 -3.552,4.368 0,2.688 1.312,4.352 3.536,4.352 2.208,0 3.552,-1.68 3.552,-4.384 0,-2.736 -1.312,-4.336 -3.536,-4.336 z m 0,0.784 c 1.616,0 2.56,1.2 2.56,3.552 0,2.4 -0.976,3.6 -2.576,3.6 -1.6,0 -2.544,-1.216 -2.544,-3.568 0,-2.4 0.976,-3.584 2.56,-3.584 z m -8.52775,-0.784 c -1.216,0 -2.144,0.64 -2.8,1.6 l -0.096,-1.424 h -0.8 v 8.368 h 0.928 v -6.064 c 0.688,-1.024 1.456,-1.728 2.592,-1.728 1.024,0 1.584,0.56 1.584,1.936 v 5.856 h 0.928 v -5.984 c 0,-1.616 -0.816,-2.56 -2.336,-2.56 z m -6.66325,8.544 h 1.008 l -3.648,-10.96 h -1.2 l -3.66401,10.96 h 0.976 l 0.96001,-2.992 h 4.608 z m -5.296,-3.808 2.048,-6.368 2.032,6.368 z m -7.26551,2.816 c -0.416,0.24 -0.816,0.368 -1.28,0.368 -0.848,0 -1.232,-0.48 -1.232,-1.456 v -5.536 h 2.048 l 0.112,-0.752 h -2.16 v -2.112 l -0.928,0.112 v 2 h -1.408 v 0.752 h 1.408 v 5.584 c 0,1.456 0.784,2.208 2.048,2.208 0.672,0 1.248,-0.192 1.76,-0.528 z m -6.0665,-3.504 c 0,-2.464 -1.088,-4.048 -3.264,-4.048 -2.048,0 -3.344,1.76 -3.344,4.432 0,2.688 1.344,4.288 3.552,4.288 1.104,0 1.952,-0.384 2.736,-1.024 l -0.432,-0.592 c -0.736,0.544 -1.344,0.832 -2.256,0.832 -1.44,0 -2.496,-0.944 -2.608,-3.216 h 5.584 c 0.016,-0.16 0.032,-0.416 0.032,-0.672 z m -0.912,-0.048 h -4.704 c 0.096,-2.272 1.072,-3.232 2.384,-3.232 1.584,0 2.32,1.168 2.32,2.992 z m -6.076,-6.416 h -1.024 l -2.896,5.824 -2.944,-5.824 h -1.072 l 3.504,6.688 v 4.272 h 0.96 v -4.288 z"
       style="font-style:normal;font-variant:normal;font-weight:300;font-stretch:normal;font-size:16px;line-height:125%;font-family:'Fira Sans';-inkscape-font-specification:'Fira Sans, Light';font-variant-ligatures:normal;font-variant-caps:normal;font-variant-numeric:normal;font-feature-settings:normal;text-align:center;letter-spacing:0px;writing-mode:lr-tb;text-anchor:middle"
       id="title_text" />
    <g
       transform="translate(410,410)"
       id="hour_hand_shade">
      <path
         inkscape:connector-curvature="0"
         style="fill:#000000;fill-opacity:0.23529412;fill-rule:nonzero;stroke:none;stroke-width:0.5;stroke-linecap:butt;stroke-linejoin:miter;stroke-miterlimit:4;stroke-dashoffset:0;stroke-opacity:1;filter:url(#filter3259)"
         d="m -12.5,-109 v 162.999999 h 25 v -162.999999 l -12.5,-46 z"
         id="ShadeHour"
         inkscape:transform-center-y="-50.5" />
    </g>
    <g
       transform="translate(400,400)"
       id="hour_hand">
      <path
         sodipodi:nodetypes="cccccc"
         inkscape:connector-curvature="0"
         style="fill:#000080;fill-opacity:1;fill-rule:nonzero;stroke:none;stroke-width:0.5;stroke-linecap:butt;stroke-linejoin:miter;stroke-miterlimit:4;stroke-dashoffset:0;stroke-opacity:1"
         d="m -12.5,-109 v 162.999999 h 25 v -162.999999 l -12.5,-46 z"
         id="RotHour"
         inkscape:transform-center-y="-50.5" />
    </g>
    <g
       transform="translate(410,410)"
       id="minute_hand_shade">
      <path
         inkscape:connector-curvature="0"
         style="fill:#000000;fill-opacity:0.23529412;fill-rule:nonzero;stroke:none;stroke-width:0.5;stroke-linecap:butt;stroke-linejoin:miter;stroke-miterlimit:4;stroke-dashoffset:0;stroke-opacity:1;filter:url(#filter3295)"
         d="m -10.5,-180 10.5,-40 10.5,40 v 233.999996 h -21 z"
         id="ShadeMinute"
         sodipodi:nodetypes="ccccc"
         inkscape:transform-center-y="-83" />
    </g>
    <g
       transform="translate(400,400)"
       id="minute_hand">
      <path
         inkscape:connector-curvature="0"
         style="fill:#008000;fill-opacity:1;fill-rule:nonzero;stroke:none;stroke-width:0.5;stroke-linecap:butt;stroke-linejoin:miter;stroke-miterlimit:4;stroke-dashoffset:0;stroke-opacity:1"
         d="m -10.5,-180 10.5,-40 10.5,40 v 233.999996 h -21 z"
         id="RotMinute"
         sodipodi:nodetypes="cccccc"
         inkscape:transform-center-y="-83" />
    </g>
    <g
       transform="translate(410,410)"
       id="second_hand_shade">
      <path
         inkscape:connector-curvature="0"
         style="fill:#000000;fill-opacity:0.23529412;fill-rule:nonzero;stroke:none;stroke-width:0.5;stroke-linecap:butt;stroke-linejoin:miter;stroke-miterlimit:4;stroke-dashoffset:0;stroke-opacity:1;filter:url(#filter3319)"
         d="m 0,-174 -21.5,40 h 17.5 v 124.8125 c -3.54108,1.53965 -5.9999903,5.082 -6,9.1875 0,4.1055 2.45892,7.6478504 6,9.1875 v 63.8125 h 8 v -63.84375 c 3.52068,-1.5483696 6.00001,-5.06554 6,-9.15625 0,-4.09071 -2.47932,-7.60788 -6,-9.15625 v -124.84375 h 17.5 z"
         id="ShadeSecond"
         inkscape:transform-center-y="-50.5"
         sodipodi:nodetypes="csccsccccsccsc" />
    </g>
    <g
       transform="translate(400,400)"
       id="second_hand">
      <path
         inkscape:transform-center-y="-50.5"
         sodipodi:nodetypes="cccccccccccccc"
         inkscape:connector-curvature="0"
         id="RotSecond"
         d="m 0,-174 -21.5,40 h 17.5 v 124.8125 c -3.54108,1.53965 -5.9999903,5.082 -6,9.1875 0,4.1055 2.45892,7.6478504 6,9.1875 v 63.8125 h 8 v -63.84375 c 3.52068,-1.5483696 6.00001,-5.06554 6,-9.15625 0,-4.09071 -2.47932,-7.60788 -6,-9.15625 v -124.84375 h 17.5 z"
         style="overflow:visible;fill:#fe0000;fill-opacity:1;stroke:none;stroke-width:0.99113423" />
    </g>
    <g
       transform="translate(100,100)"
       id="cover">
      <circle
         r="250"
         cy="300"
         cx="300"
         style="fill:url(#radialGradient3225);fill-opacity:1;fill-rule:nonzero;stroke:none;stroke-width:7.54838419;stroke-linecap:butt;stroke-linejoin:miter;stroke-miterlimit:4;stroke-dasharray:none;stroke-dashoffset:0;stroke-opacity:1"
         id="glass" />
      <path
         inkscape:connector-curvature="0"
         style="fill:url(#linearGradient3247);fill-opacity:1;fill-rule:nonzero;stroke:none;stroke-width:0.49986693;stroke-linecap:butt;stroke-linejoin:miter;stroke-miterlimit:4;stroke-dasharray:none;stroke-dashoffset:0;stroke-opacity:1"
         d="m 299.99998,49.999992 c -108.09635,0 -200.227452,68.736528 -235.054938,164.857968 63.725408,53.10317 145.681288,85.07549 235.054938,85.07549 89.38252,0 171.32702,-31.96287 235.05499,-85.07549 -34.82751,-96.12144 -126.95864,-164.857968 -235.05499,-164.857968 z"
         id="gloss" />
    </g>
    <path
       inkscape:connector-curvature="0"
       id="border"
       d="m 400.00004,130 c -149.03996,0 -269.99996,120.96 -269.99998,270 3e-5,149.04 120.96005,270.00003 269.99998,270 149.0402,0 270,-120.96 269.9999,-270 0,-149.04 -120.9597,-270 -269.9999,-270 z m 0,28 c 133.5841,1e-5 241.9999,108.416 241.9999,242 10e-5,133.584 -108.4159,242 -241.9999,242 -133.58399,0 -241.99998,-108.416 -241.99998,-242 1e-5,-133.584 108.41598,-242 241.99998,-242 z"
       style="opacity:1;fill:url(#linearGradient3223);fill-opacity:1;fill-rule:nonzero;stroke:none;stroke-width:0.5;stroke-linecap:butt;stroke-linejoin:miter;stroke-miterlimit:4;stroke-dasharray:none;stroke-dashoffset:0;stroke-opacity:1" />
  </g>
</svg>
